Coordinates
version=1
nRows=5
nColumns=40
inDegrees=yes

Units are S.I. units (second, meters, Newtons, ...)
If the header above contains a line with 'inDegrees', this indicates whether rotational values are in degrees (yes) or radians (no).

endheader
time	pelvis_tilt	pelvis_list	pelvis_rotation	pelvis_tx	pelvis_ty	pelvis_tz	hip_flexion_r	hip_adduction_r	hip_rotation_r	knee_angle_r	knee_angle_r_beta	ankle_angle_r	subtalar_angle_r	mtp_angle_r	hip_flexion_l	hip_adduction_l	hip_rotation_l	knee_angle_l	knee_angle_l_beta	ankle_angle_l	subtalar_angle_l	mtp_angle_l	lumbar_extension	lumbar_bending	lumbar_rotation	arm_flex_r	arm_add_r	arm_rot_r	elbow_flex_r	pro_sup_r	wrist_flex_r	wrist_dev_r	arm_flex_l	arm_add_l	arm_rot_l	elbow_flex_l	pro_sup_l	wrist_flex_l	wrist_dev_l
      1.89000000	     -2.57436925	      7.88194037	    -86.12569152	      0.25845917	      0.96631942	      1.14356637	     13.80639761	      6.49263607	     -5.41407465	     13.05625329	      0.22787461	      1.17876903	      0.00000000	      0.00000000	     27.38763895	     -4.69169372	     -1.05804155	     65.72031613	      1.14703590	     -9.21367321	      0.00000000	      0.00000000	      3.02683611	      0.49134148	      0.24643506	      0.00000000	      0.00000000	      0.00000000	      0.00000000	      0.00000000	      0.00000000	      0.00000000	      0.00000000	      0.00000000	      0.00000000	      0.00000000	      0.00000000	      0.00000000	      0.00000000
      1.90000000	     -2.30407150	      7.90252367	    -86.19879611	      0.25803012	      0.96696042	      1.15143028	     13.00161615	      6.31683178	     -5.19896657	     12.52159361	      0.21854304	      1.40801673	      0.00000000	      0.00000000	     28.45579550	     -4.39864705	     -1.20048982	     64.95973361	      1.13376123	     -7.79383640	      0.00000000	      0.00000000	      2.89233375	      0.14426833	      0.50650034	      0.00000000	      0.00000000	      0.00000000	      0.00000000	      0.00000000	      0.00000000	      0.00000000	      0.00000000	      0.00000000	      0.00000000	      0.00000000	      0.00000000	      0.00000000	      0.00000000
      1.91000000	     -2.04009879	      7.93261480	    -86.29146112	      0.25763361	      0.96747650	      1.15933358	     12.20995055	      6.14661663	     -4.97066987	     11.99501771	      0.20935255	      1.64016118	      0.00000000	      0.00000000	     29.43785076	     -4.10840058	     -1.35048026	     63.89687904	      1.11521092	     -6.47522509	      0.00000000	      0.00000000	      2.78263550	     -0.19436261	      0.75815605	      0.00000000	      0.00000000	      0.00000000	      0.00000000	      0.00000000	      0.00000000	      0.00000000	      0.00000000	      0.00000000	      0.00000000	      0.00000000	      0.00000000	      0.00000000	      0.00000000
      1.92000000	     -1.78649102	      7.88493144	    -86.44004282	      0.25718737	      0.96800028	      1.16733809	     11.31756847	      6.00156425	     -4.67035492	     11.44371786	      0.19973056	      1.86437693	     -0.00000000	     -0.00000000	     30.21265806	     -3.88853981	     -1.60249624	     62.52462684	      1.09126060	     -5.21913485	      0.00000000	     -0.00000000	      2.58879731	     -0.50591057	      1.04070265	      0.00000000	     -0.00000000	     -0.00000000	      0.00000000	      0.00000000	      0.00000000	      0.00000000	      0.00000000	     -0.00000000	     -0.00000000	      0.00000000	      0.00000000	      0.00000000	     -0.00000000
      1.93000000	     -1.54204690	      7.91075292	    -86.57083337	      0.25684793	      0.96830076	      1.17535059	     10.51823366	      5.84506403	     -4.39626616	     10.92072032	      0.19060253	      2.10495843	      0.00000000	      0.00000000	     30.97668699	     -3.63978742	     -1.81174974	     60.86039848	      1.06221434	     -4.17175147	      0.00000000	      0.00000000	      2.48764553	     -0.80543037	      1.29117742	      0.00000000	      0.00000000	      0.00000000	      0.00000000	      0.00000000	      0.00000000	      0.00000000	      0.00000000	      0.00000000	      0.00000000	      0.00000000	      0.00000000	      0.00000000	      0.00000000
